<mxfile host="65bd71144e">
    <diagram id="-WmuBGpDVjnGiev7n9fb" name="PÃ¡gina-1">
        <mxGraphModel dx="776" dy="506" grid="1" gridSize="10" guides="1" tooltips="1" connect="1" arrows="1" fold="1" page="1" pageScale="1" pageWidth="827" pageHeight="1169" math="0" shadow="0">
            <root>
                <mxCell id="0"/>
                <mxCell id="1" parent="0"/>
                <mxCell id="113" value="" style="edgeStyle=none;html=1;" edge="1" parent="1" source="2" target="112">
                    <mxGeometry relative="1" as="geometry"/>
                </mxCell>
                <mxCell id="2" value="X" style="ellipse;whiteSpace=wrap;html=1;" parent="1" vertex="1">
                    <mxGeometry x="330" width="110" height="50" as="geometry"/>
                </mxCell>
                <mxCell id="115" value="" style="edgeStyle=none;html=1;" edge="1" parent="1" source="112" target="114">
                    <mxGeometry relative="1" as="geometry">
                        <Array as="points">
                            <mxPoint x="225" y="120"/>
                        </Array>
                    </mxGeometry>
                </mxCell>
                <mxCell id="133" style="edgeStyle=none;html=1;exitX=1;exitY=0.5;exitDx=0;exitDy=0;entryX=0.5;entryY=0;entryDx=0;entryDy=0;" edge="1" parent="1" source="112" target="122">
                    <mxGeometry relative="1" as="geometry">
                        <mxPoint x="451" y="130" as="sourcePoint"/>
                        <mxPoint x="535" y="120" as="targetPoint"/>
                        <Array as="points">
                            <mxPoint x="565" y="120"/>
                        </Array>
                    </mxGeometry>
                </mxCell>
                <mxCell id="112" value="X=0" style="rhombus;whiteSpace=wrap;html=1;" vertex="1" parent="1">
                    <mxGeometry x="345" y="80" width="80" height="80" as="geometry"/>
                </mxCell>
                <mxCell id="136" value="" style="edgeStyle=none;html=1;entryX=0.5;entryY=0;entryDx=0;entryDy=0;" edge="1" parent="1" source="114" target="151">
                    <mxGeometry relative="1" as="geometry">
                        <mxPoint x="227.10526315789468" y="270" as="targetPoint"/>
                    </mxGeometry>
                </mxCell>
                <mxCell id="218" value="" style="edgeStyle=none;html=1;" edge="1" parent="1" source="114" target="139">
                    <mxGeometry relative="1" as="geometry"/>
                </mxCell>
                <mxCell id="114" value="A=0" style="rhombus;whiteSpace=wrap;html=1;" vertex="1" parent="1">
                    <mxGeometry x="185" y="150" width="80" height="80" as="geometry"/>
                </mxCell>
                <mxCell id="116" value="F" style="text;html=1;strokeColor=none;fillColor=none;align=center;verticalAlign=middle;whiteSpace=wrap;rounded=0;" vertex="1" parent="1">
                    <mxGeometry x="310" y="90" width="50" height="30" as="geometry"/>
                </mxCell>
                <mxCell id="127" value="" style="edgeStyle=none;html=1;entryX=0.5;entryY=0;entryDx=0;entryDy=0;" edge="1" parent="1" source="122" target="173">
                    <mxGeometry relative="1" as="geometry">
                        <mxPoint x="475" y="190" as="targetPoint"/>
                        <Array as="points">
                            <mxPoint x="470" y="190"/>
                        </Array>
                    </mxGeometry>
                </mxCell>
                <mxCell id="204" value="" style="edgeStyle=none;html=1;entryX=0.5;entryY=0;entryDx=0;entryDy=0;" edge="1" parent="1" source="122" target="188">
                    <mxGeometry relative="1" as="geometry">
                        <mxPoint x="565" y="320" as="targetPoint"/>
                    </mxGeometry>
                </mxCell>
                <mxCell id="122" value="A=0" style="rhombus;whiteSpace=wrap;html=1;" vertex="1" parent="1">
                    <mxGeometry x="525" y="150" width="80" height="80" as="geometry"/>
                </mxCell>
                <mxCell id="124" value="TRUE" style="whiteSpace=wrap;html=1;" vertex="1" parent="1">
                    <mxGeometry x="520" y="995" width="85" height="30" as="geometry"/>
                </mxCell>
                <mxCell id="129" value="F" style="text;html=1;strokeColor=none;fillColor=none;align=center;verticalAlign=middle;whiteSpace=wrap;rounded=0;" vertex="1" parent="1">
                    <mxGeometry x="490" y="165" width="50" height="30" as="geometry"/>
                </mxCell>
                <mxCell id="130" value="F" style="text;html=1;strokeColor=none;fillColor=none;align=center;verticalAlign=middle;whiteSpace=wrap;rounded=0;" vertex="1" parent="1">
                    <mxGeometry x="150" y="160" width="60" height="30" as="geometry"/>
                </mxCell>
                <mxCell id="131" value="T" style="text;html=1;strokeColor=none;fillColor=none;align=center;verticalAlign=middle;whiteSpace=wrap;rounded=0;" vertex="1" parent="1">
                    <mxGeometry x="520" y="220" width="60" height="30" as="geometry"/>
                </mxCell>
                <mxCell id="132" value="T" style="text;html=1;strokeColor=none;fillColor=none;align=center;verticalAlign=middle;whiteSpace=wrap;rounded=0;" vertex="1" parent="1">
                    <mxGeometry x="402.5" y="90" width="60" height="30" as="geometry"/>
                </mxCell>
                <mxCell id="137" value="T" style="text;html=1;strokeColor=none;fillColor=none;align=center;verticalAlign=middle;whiteSpace=wrap;rounded=0;" vertex="1" parent="1">
                    <mxGeometry x="180" y="220" width="60" height="30" as="geometry"/>
                </mxCell>
                <mxCell id="141" value="" style="edgeStyle=none;html=1;" edge="1" parent="1" source="139" target="140">
                    <mxGeometry relative="1" as="geometry"/>
                </mxCell>
                <mxCell id="139" value="A-1" style="whiteSpace=wrap;html=1;" vertex="1" parent="1">
                    <mxGeometry x="40" y="170" width="85" height="40" as="geometry"/>
                </mxCell>
                <mxCell id="147" value="" style="edgeStyle=none;html=1;" edge="1" parent="1" source="140" target="145">
                    <mxGeometry relative="1" as="geometry"/>
                </mxCell>
                <mxCell id="140" value="X-1" style="whiteSpace=wrap;html=1;" vertex="1" parent="1">
                    <mxGeometry x="40" y="250" width="85" height="40" as="geometry"/>
                </mxCell>
                <mxCell id="144" value="" style="edgeStyle=none;html=1;" edge="1" parent="1" source="145" target="146">
                    <mxGeometry relative="1" as="geometry"/>
                </mxCell>
                <mxCell id="145" value="B+1" style="whiteSpace=wrap;html=1;" vertex="1" parent="1">
                    <mxGeometry x="40" y="330" width="85" height="40" as="geometry"/>
                </mxCell>
                <mxCell id="148" style="edgeStyle=none;html=1;exitX=0.5;exitY=1;exitDx=0;exitDy=0;" edge="1" parent="1" source="146">
                    <mxGeometry relative="1" as="geometry">
                        <mxPoint x="380" y="60" as="targetPoint"/>
                        <Array as="points">
                            <mxPoint x="83" y="480"/>
                            <mxPoint x="20" y="480"/>
                            <mxPoint x="20" y="60"/>
                        </Array>
                    </mxGeometry>
                </mxCell>
                <mxCell id="146" value="C+1" style="whiteSpace=wrap;html=1;" vertex="1" parent="1">
                    <mxGeometry x="40" y="410" width="85" height="40" as="geometry"/>
                </mxCell>
                <mxCell id="150" value="" style="edgeStyle=none;html=1;" edge="1" parent="1" source="151" target="153">
                    <mxGeometry relative="1" as="geometry"/>
                </mxCell>
                <mxCell id="168" value="" style="edgeStyle=none;html=1;entryX=0.5;entryY=0;entryDx=0;entryDy=0;" edge="1" parent="1" source="151" target="160">
                    <mxGeometry relative="1" as="geometry"/>
                </mxCell>
                <mxCell id="151" value="B=0" style="rhombus;whiteSpace=wrap;html=1;" vertex="1" parent="1">
                    <mxGeometry x="185" y="540" width="80" height="80" as="geometry"/>
                </mxCell>
                <mxCell id="152" value="" style="edgeStyle=none;html=1;" edge="1" parent="1" source="153" target="155">
                    <mxGeometry relative="1" as="geometry"/>
                </mxCell>
                <mxCell id="153" value="B-1" style="whiteSpace=wrap;html=1;" vertex="1" parent="1">
                    <mxGeometry x="50" y="565" width="85" height="30" as="geometry"/>
                </mxCell>
                <mxCell id="154" style="edgeStyle=none;html=1;exitX=0;exitY=0.5;exitDx=0;exitDy=0;" edge="1" parent="1" source="155">
                    <mxGeometry relative="1" as="geometry">
                        <mxPoint x="220" y="510" as="targetPoint"/>
                        <Array as="points">
                            <mxPoint x="20" y="635"/>
                            <mxPoint x="20" y="510"/>
                        </Array>
                    </mxGeometry>
                </mxCell>
                <mxCell id="155" value="X+1" style="whiteSpace=wrap;html=1;" vertex="1" parent="1">
                    <mxGeometry x="50" y="620" width="85" height="30" as="geometry"/>
                </mxCell>
                <mxCell id="159" value="" style="edgeStyle=none;html=1;" edge="1" parent="1" source="160" target="162">
                    <mxGeometry relative="1" as="geometry"/>
                </mxCell>
                <mxCell id="170" value="" style="edgeStyle=none;html=1;" edge="1" parent="1" source="160" target="169">
                    <mxGeometry relative="1" as="geometry"/>
                </mxCell>
                <mxCell id="160" value="C=0" style="rhombus;whiteSpace=wrap;html=1;" vertex="1" parent="1">
                    <mxGeometry x="185" y="710" width="80" height="80" as="geometry"/>
                </mxCell>
                <mxCell id="161" value="" style="edgeStyle=none;html=1;" edge="1" parent="1" source="162" target="164">
                    <mxGeometry relative="1" as="geometry"/>
                </mxCell>
                <mxCell id="162" value="C-1" style="whiteSpace=wrap;html=1;" vertex="1" parent="1">
                    <mxGeometry x="42.5" y="735" width="85" height="30" as="geometry"/>
                </mxCell>
                <mxCell id="163" style="edgeStyle=none;html=1;exitX=0;exitY=0.5;exitDx=0;exitDy=0;" edge="1" parent="1" source="164">
                    <mxGeometry relative="1" as="geometry">
                        <mxPoint x="220" y="680" as="targetPoint"/>
                        <Array as="points">
                            <mxPoint x="12.5" y="805"/>
                            <mxPoint x="12.5" y="680"/>
                        </Array>
                    </mxGeometry>
                </mxCell>
                <mxCell id="164" value="A+1" style="whiteSpace=wrap;html=1;" vertex="1" parent="1">
                    <mxGeometry x="42.5" y="790" width="85" height="30" as="geometry"/>
                </mxCell>
                <mxCell id="169" value="FALSE" style="whiteSpace=wrap;html=1;" vertex="1" parent="1">
                    <mxGeometry x="182.5" y="860" width="85" height="30" as="geometry"/>
                </mxCell>
                <mxCell id="171" value="" style="edgeStyle=none;html=1;startArrow=none;" edge="1" parent="1" target="175">
                    <mxGeometry relative="1" as="geometry">
                        <mxPoint x="340" y="282.608695652174" as="sourcePoint"/>
                    </mxGeometry>
                </mxCell>
                <mxCell id="172" value="" style="edgeStyle=none;html=1;entryX=0.5;entryY=0;entryDx=0;entryDy=0;" edge="1" parent="1" source="173" target="180">
                    <mxGeometry relative="1" as="geometry"/>
                </mxCell>
                <mxCell id="236" style="edgeStyle=none;html=1;exitX=0;exitY=0.5;exitDx=0;exitDy=0;entryX=1;entryY=0.5;entryDx=0;entryDy=0;" edge="1" parent="1" source="173" target="175">
                    <mxGeometry relative="1" as="geometry"/>
                </mxCell>
                <mxCell id="173" value="B=0" style="rhombus;whiteSpace=wrap;html=1;" vertex="1" parent="1">
                    <mxGeometry x="430" y="245" width="80" height="80" as="geometry"/>
                </mxCell>
                <mxCell id="174" value="" style="edgeStyle=none;html=1;" edge="1" parent="1" source="175" target="177">
                    <mxGeometry relative="1" as="geometry"/>
                </mxCell>
                <mxCell id="175" value="B-1" style="whiteSpace=wrap;html=1;" vertex="1" parent="1">
                    <mxGeometry x="295" y="270" width="85" height="30" as="geometry"/>
                </mxCell>
                <mxCell id="176" style="edgeStyle=none;html=1;exitX=0;exitY=0.5;exitDx=0;exitDy=0;" edge="1" parent="1" source="177">
                    <mxGeometry relative="1" as="geometry">
                        <mxPoint x="465" y="215" as="targetPoint"/>
                        <Array as="points">
                            <mxPoint x="265" y="340"/>
                            <mxPoint x="265" y="215"/>
                        </Array>
                    </mxGeometry>
                </mxCell>
                <mxCell id="177" value="X+1" style="whiteSpace=wrap;html=1;" vertex="1" parent="1">
                    <mxGeometry x="295" y="325" width="85" height="30" as="geometry"/>
                </mxCell>
                <mxCell id="178" value="" style="edgeStyle=none;html=1;" edge="1" parent="1" source="180" target="182">
                    <mxGeometry relative="1" as="geometry"/>
                </mxCell>
                <mxCell id="179" value="" style="edgeStyle=none;html=1;" edge="1" parent="1" source="180" target="185">
                    <mxGeometry relative="1" as="geometry"/>
                </mxCell>
                <mxCell id="180" value="C=0" style="rhombus;whiteSpace=wrap;html=1;" vertex="1" parent="1">
                    <mxGeometry x="430" y="415" width="80" height="80" as="geometry"/>
                </mxCell>
                <mxCell id="181" value="" style="edgeStyle=none;html=1;" edge="1" parent="1" source="182" target="184">
                    <mxGeometry relative="1" as="geometry"/>
                </mxCell>
                <mxCell id="182" value="C-1" style="whiteSpace=wrap;html=1;" vertex="1" parent="1">
                    <mxGeometry x="287.5" y="440" width="85" height="30" as="geometry"/>
                </mxCell>
                <mxCell id="183" style="edgeStyle=none;html=1;exitX=0;exitY=0.5;exitDx=0;exitDy=0;" edge="1" parent="1" source="184">
                    <mxGeometry relative="1" as="geometry">
                        <mxPoint x="465" y="385" as="targetPoint"/>
                        <Array as="points">
                            <mxPoint x="257.5" y="510"/>
                            <mxPoint x="257.5" y="385"/>
                        </Array>
                    </mxGeometry>
                </mxCell>
                <mxCell id="184" value="A+1" style="whiteSpace=wrap;html=1;" vertex="1" parent="1">
                    <mxGeometry x="287.5" y="495" width="85" height="30" as="geometry"/>
                </mxCell>
                <mxCell id="185" value="FALSE" style="whiteSpace=wrap;html=1;" vertex="1" parent="1">
                    <mxGeometry x="427.5" y="565" width="85" height="30" as="geometry"/>
                </mxCell>
                <mxCell id="186" value="" style="edgeStyle=none;html=1;" edge="1" parent="1" source="188" target="190">
                    <mxGeometry relative="1" as="geometry"/>
                </mxCell>
                <mxCell id="187" value="" style="edgeStyle=none;html=1;entryX=0.5;entryY=0;entryDx=0;entryDy=0;" edge="1" parent="1" source="188" target="195">
                    <mxGeometry relative="1" as="geometry"/>
                </mxCell>
                <mxCell id="188" value="B=0" style="rhombus;whiteSpace=wrap;html=1;" vertex="1" parent="1">
                    <mxGeometry x="522.5" y="670" width="80" height="80" as="geometry"/>
                </mxCell>
                <mxCell id="189" value="" style="edgeStyle=none;html=1;" edge="1" parent="1" source="190" target="192">
                    <mxGeometry relative="1" as="geometry"/>
                </mxCell>
                <mxCell id="190" value="B-1" style="whiteSpace=wrap;html=1;" vertex="1" parent="1">
                    <mxGeometry x="387.5" y="695" width="85" height="30" as="geometry"/>
                </mxCell>
                <mxCell id="191" style="edgeStyle=none;html=1;exitX=0;exitY=0.5;exitDx=0;exitDy=0;" edge="1" parent="1" source="192">
                    <mxGeometry relative="1" as="geometry">
                        <mxPoint x="557.5" y="640" as="targetPoint"/>
                        <Array as="points">
                            <mxPoint x="357.5" y="765"/>
                            <mxPoint x="357.5" y="640"/>
                        </Array>
                    </mxGeometry>
                </mxCell>
                <mxCell id="192" value="X+1" style="whiteSpace=wrap;html=1;" vertex="1" parent="1">
                    <mxGeometry x="387.5" y="750" width="85" height="30" as="geometry"/>
                </mxCell>
                <mxCell id="193" value="" style="edgeStyle=none;html=1;" edge="1" parent="1" source="195" target="197">
                    <mxGeometry relative="1" as="geometry"/>
                </mxCell>
                <mxCell id="194" value="" style="edgeStyle=none;html=1;" edge="1" parent="1" source="195">
                    <mxGeometry relative="1" as="geometry">
                        <mxPoint x="562.5" y="990" as="targetPoint"/>
                    </mxGeometry>
                </mxCell>
                <mxCell id="195" value="C=0" style="rhombus;whiteSpace=wrap;html=1;" vertex="1" parent="1">
                    <mxGeometry x="522.5" y="840" width="80" height="80" as="geometry"/>
                </mxCell>
                <mxCell id="196" value="" style="edgeStyle=none;html=1;" edge="1" parent="1" source="197" target="199">
                    <mxGeometry relative="1" as="geometry"/>
                </mxCell>
                <mxCell id="197" value="C-1" style="whiteSpace=wrap;html=1;" vertex="1" parent="1">
                    <mxGeometry x="380" y="865" width="85" height="30" as="geometry"/>
                </mxCell>
                <mxCell id="198" style="edgeStyle=none;html=1;exitX=0;exitY=0.5;exitDx=0;exitDy=0;" edge="1" parent="1" source="199">
                    <mxGeometry relative="1" as="geometry">
                        <mxPoint x="557.5" y="810" as="targetPoint"/>
                        <Array as="points">
                            <mxPoint x="350" y="935"/>
                            <mxPoint x="350" y="810"/>
                        </Array>
                    </mxGeometry>
                </mxCell>
                <mxCell id="199" value="A+1" style="whiteSpace=wrap;html=1;" vertex="1" parent="1">
                    <mxGeometry x="380" y="920" width="85" height="30" as="geometry"/>
                </mxCell>
                <mxCell id="205" value="F" style="text;html=1;strokeColor=none;fillColor=none;align=center;verticalAlign=middle;whiteSpace=wrap;rounded=0;" vertex="1" parent="1">
                    <mxGeometry x="405" y="255" width="50" height="30" as="geometry"/>
                </mxCell>
                <mxCell id="206" value="F" style="text;html=1;strokeColor=none;fillColor=none;align=center;verticalAlign=middle;whiteSpace=wrap;rounded=0;" vertex="1" parent="1">
                    <mxGeometry x="405" y="420" width="50" height="30" as="geometry"/>
                </mxCell>
                <mxCell id="207" value="F" style="text;html=1;strokeColor=none;fillColor=none;align=center;verticalAlign=middle;whiteSpace=wrap;rounded=0;" vertex="1" parent="1">
                    <mxGeometry x="170" y="540" width="50" height="30" as="geometry"/>
                </mxCell>
                <mxCell id="208" value="F" style="text;html=1;strokeColor=none;fillColor=none;align=center;verticalAlign=middle;whiteSpace=wrap;rounded=0;" vertex="1" parent="1">
                    <mxGeometry x="160" y="720" width="50" height="30" as="geometry"/>
                </mxCell>
                <mxCell id="209" value="F" style="text;html=1;strokeColor=none;fillColor=none;align=center;verticalAlign=middle;whiteSpace=wrap;rounded=0;" vertex="1" parent="1">
                    <mxGeometry x="500" y="680" width="50" height="30" as="geometry"/>
                </mxCell>
                <mxCell id="210" value="F" style="text;html=1;strokeColor=none;fillColor=none;align=center;verticalAlign=middle;whiteSpace=wrap;rounded=0;" vertex="1" parent="1">
                    <mxGeometry x="500" y="850" width="50" height="30" as="geometry"/>
                </mxCell>
                <mxCell id="211" value="T" style="text;html=1;strokeColor=none;fillColor=none;align=center;verticalAlign=middle;whiteSpace=wrap;rounded=0;" vertex="1" parent="1">
                    <mxGeometry x="425" y="310" width="60" height="30" as="geometry"/>
                </mxCell>
                <mxCell id="212" value="T" style="text;html=1;strokeColor=none;fillColor=none;align=center;verticalAlign=middle;whiteSpace=wrap;rounded=0;" vertex="1" parent="1">
                    <mxGeometry x="182.5" y="610" width="60" height="30" as="geometry"/>
                </mxCell>
                <mxCell id="213" value="T" style="text;html=1;strokeColor=none;fillColor=none;align=center;verticalAlign=middle;whiteSpace=wrap;rounded=0;" vertex="1" parent="1">
                    <mxGeometry x="512.5" y="740" width="60" height="30" as="geometry"/>
                </mxCell>
                <mxCell id="215" value="T" style="text;html=1;strokeColor=none;fillColor=none;align=center;verticalAlign=middle;whiteSpace=wrap;rounded=0;" vertex="1" parent="1">
                    <mxGeometry x="182.5" y="780" width="60" height="30" as="geometry"/>
                </mxCell>
                <mxCell id="216" value="T" style="text;html=1;strokeColor=none;fillColor=none;align=center;verticalAlign=middle;whiteSpace=wrap;rounded=0;" vertex="1" parent="1">
                    <mxGeometry x="510" y="910" width="60" height="30" as="geometry"/>
                </mxCell>
                <mxCell id="217" value="T" style="text;html=1;strokeColor=none;fillColor=none;align=center;verticalAlign=middle;whiteSpace=wrap;rounded=0;" vertex="1" parent="1">
                    <mxGeometry x="425" y="490" width="60" height="30" as="geometry"/>
                </mxCell>
                <mxCell id="219" value="1" style="text;html=1;strokeColor=none;fillColor=none;align=center;verticalAlign=middle;whiteSpace=wrap;rounded=0;" vertex="1" parent="1">
                    <mxGeometry x="355" y="80" width="60" height="30" as="geometry"/>
                </mxCell>
                <mxCell id="220" value="2" style="text;html=1;strokeColor=none;fillColor=none;align=center;verticalAlign=middle;whiteSpace=wrap;rounded=0;" vertex="1" parent="1">
                    <mxGeometry x="195" y="150" width="60" height="30" as="geometry"/>
                </mxCell>
                <mxCell id="221" value="3" style="text;html=1;strokeColor=none;fillColor=none;align=center;verticalAlign=middle;whiteSpace=wrap;rounded=0;" vertex="1" parent="1">
                    <mxGeometry x="90" y="165" width="60" height="30" as="geometry"/>
                </mxCell>
                <mxCell id="222" value="4" style="text;html=1;strokeColor=none;fillColor=none;align=center;verticalAlign=middle;whiteSpace=wrap;rounded=0;" vertex="1" parent="1">
                    <mxGeometry x="90" y="245" width="60" height="30" as="geometry"/>
                </mxCell>
                <mxCell id="223" value="5" style="text;html=1;strokeColor=none;fillColor=none;align=center;verticalAlign=middle;whiteSpace=wrap;rounded=0;" vertex="1" parent="1">
                    <mxGeometry x="90" y="325" width="60" height="30" as="geometry"/>
                </mxCell>
                <mxCell id="224" value="6" style="text;html=1;strokeColor=none;fillColor=none;align=center;verticalAlign=middle;whiteSpace=wrap;rounded=0;" vertex="1" parent="1">
                    <mxGeometry x="90" y="400" width="60" height="40" as="geometry"/>
                </mxCell>
                <mxCell id="225" value="7" style="text;html=1;strokeColor=none;fillColor=none;align=center;verticalAlign=middle;whiteSpace=wrap;rounded=0;" vertex="1" parent="1">
                    <mxGeometry x="195" y="535" width="60" height="40" as="geometry"/>
                </mxCell>
                <mxCell id="226" value="8&lt;span style=&quot;color: rgba(0 , 0 , 0 , 0) ; font-family: monospace ; font-size: 0px&quot;&gt;%3CmxGraphModel%3E%3Croot%3E%3CmxCell%20id%3D%220%22%2F%3E%3CmxCell%20id%3D%221%22%20parent%3D%220%22%2F%3E%3CmxCell%20id%3D%222%22%20value%3D%226%22%20style%3D%22text%3Bhtml%3D1%3BstrokeColor%3Dnone%3BfillColor%3Dnone%3Balign%3Dcenter%3BverticalAlign%3Dmiddle%3BwhiteSpace%3Dwrap%3Brounded%3D0%3B%22%20vertex%3D%221%22%20parent%3D%221%22%3E%3CmxGeometry%20x%3D%2290%22%20y%3D%22400%22%20width%3D%2260%22%20height%3D%2240%22%20as%3D%22geometry%22%2F%3E%3C%2FmxCell%3E%3C%2Froot%3E%3C%2FmxGraphModel%3E&lt;/span&gt;" style="text;html=1;strokeColor=none;fillColor=none;align=center;verticalAlign=middle;whiteSpace=wrap;rounded=0;" vertex="1" parent="1">
                    <mxGeometry x="100" y="555" width="60" height="40" as="geometry"/>
                </mxCell>
                <mxCell id="227" value="9" style="text;html=1;strokeColor=none;fillColor=none;align=center;verticalAlign=middle;whiteSpace=wrap;rounded=0;" vertex="1" parent="1">
                    <mxGeometry x="100" y="610" width="60" height="40" as="geometry"/>
                </mxCell>
                <mxCell id="228" value="10" style="text;html=1;strokeColor=none;fillColor=none;align=center;verticalAlign=middle;whiteSpace=wrap;rounded=0;" vertex="1" parent="1">
                    <mxGeometry x="195" y="710" width="60" height="40" as="geometry"/>
                </mxCell>
                <mxCell id="229" value="11" style="text;html=1;strokeColor=none;fillColor=none;align=center;verticalAlign=middle;whiteSpace=wrap;rounded=0;" vertex="1" parent="1">
                    <mxGeometry x="90" y="725" width="60" height="40" as="geometry"/>
                </mxCell>
                <mxCell id="230" value="12" style="text;html=1;strokeColor=none;fillColor=none;align=center;verticalAlign=middle;whiteSpace=wrap;rounded=0;" vertex="1" parent="1">
                    <mxGeometry x="90" y="780" width="60" height="40" as="geometry"/>
                </mxCell>
                <mxCell id="231" value="13" style="text;html=1;strokeColor=none;fillColor=none;align=center;verticalAlign=middle;whiteSpace=wrap;rounded=0;" vertex="1" parent="1">
                    <mxGeometry x="227.5" y="850" width="60" height="40" as="geometry"/>
                </mxCell>
                <mxCell id="232" value="14" style="text;html=1;strokeColor=none;fillColor=none;align=center;verticalAlign=middle;whiteSpace=wrap;rounded=0;" vertex="1" parent="1">
                    <mxGeometry x="535" y="150" width="60" height="40" as="geometry"/>
                </mxCell>
                <mxCell id="233" value="15" style="text;html=1;strokeColor=none;fillColor=none;align=center;verticalAlign=middle;whiteSpace=wrap;rounded=0;" vertex="1" parent="1">
                    <mxGeometry x="440" y="240" width="60" height="40" as="geometry"/>
                </mxCell>
                <mxCell id="237" value="16" style="text;html=1;strokeColor=none;fillColor=none;align=center;verticalAlign=middle;whiteSpace=wrap;rounded=0;" vertex="1" parent="1">
                    <mxGeometry x="340" y="260" width="60" height="40" as="geometry"/>
                </mxCell>
                <mxCell id="238" value="17" style="text;html=1;strokeColor=none;fillColor=none;align=center;verticalAlign=middle;whiteSpace=wrap;rounded=0;" vertex="1" parent="1">
                    <mxGeometry x="340" y="315" width="60" height="40" as="geometry"/>
                </mxCell>
                <mxCell id="239" value="18" style="text;html=1;strokeColor=none;fillColor=none;align=center;verticalAlign=middle;whiteSpace=wrap;rounded=0;" vertex="1" parent="1">
                    <mxGeometry x="440" y="410" width="60" height="40" as="geometry"/>
                </mxCell>
                <mxCell id="240" value="19" style="text;html=1;strokeColor=none;fillColor=none;align=center;verticalAlign=middle;whiteSpace=wrap;rounded=0;" vertex="1" parent="1">
                    <mxGeometry x="330" y="430" width="60" height="40" as="geometry"/>
                </mxCell>
                <mxCell id="241" value="20" style="text;html=1;strokeColor=none;fillColor=none;align=center;verticalAlign=middle;whiteSpace=wrap;rounded=0;" vertex="1" parent="1">
                    <mxGeometry x="330" y="485" width="60" height="40" as="geometry"/>
                </mxCell>
                <mxCell id="242" value="21" style="text;html=1;strokeColor=none;fillColor=none;align=center;verticalAlign=middle;whiteSpace=wrap;rounded=0;" vertex="1" parent="1">
                    <mxGeometry x="472.5" y="555" width="60" height="40" as="geometry"/>
                </mxCell>
                <mxCell id="243" value="22" style="text;html=1;strokeColor=none;fillColor=none;align=center;verticalAlign=middle;whiteSpace=wrap;rounded=0;" vertex="1" parent="1">
                    <mxGeometry x="532.5" y="670" width="60" height="40" as="geometry"/>
                </mxCell>
                <mxCell id="244" value="23" style="text;html=1;strokeColor=none;fillColor=none;align=center;verticalAlign=middle;whiteSpace=wrap;rounded=0;" vertex="1" parent="1">
                    <mxGeometry x="430" y="685" width="60" height="40" as="geometry"/>
                </mxCell>
                <mxCell id="245" value="24" style="text;html=1;strokeColor=none;fillColor=none;align=center;verticalAlign=middle;whiteSpace=wrap;rounded=0;" vertex="1" parent="1">
                    <mxGeometry x="430" y="740" width="60" height="40" as="geometry"/>
                </mxCell>
                <mxCell id="246" value="25" style="text;html=1;strokeColor=none;fillColor=none;align=center;verticalAlign=middle;whiteSpace=wrap;rounded=0;" vertex="1" parent="1">
                    <mxGeometry x="532.5" y="840" width="60" height="40" as="geometry"/>
                </mxCell>
                <mxCell id="247" value="26" style="text;html=1;strokeColor=none;fillColor=none;align=center;verticalAlign=middle;whiteSpace=wrap;rounded=0;" vertex="1" parent="1">
                    <mxGeometry x="425" y="855" width="60" height="40" as="geometry"/>
                </mxCell>
                <mxCell id="248" value="27" style="text;html=1;strokeColor=none;fillColor=none;align=center;verticalAlign=middle;whiteSpace=wrap;rounded=0;" vertex="1" parent="1">
                    <mxGeometry x="425" y="910" width="60" height="40" as="geometry"/>
                </mxCell>
                <mxCell id="249" value="28" style="text;html=1;strokeColor=none;fillColor=none;align=center;verticalAlign=middle;whiteSpace=wrap;rounded=0;" vertex="1" parent="1">
                    <mxGeometry x="560" y="985" width="70" height="40" as="geometry"/>
                </mxCell>
            </root>
        </mxGraphModel>
    </diagram>
</mxfile>